<mxfile host="65bd71144e">
    <diagram id="gb0O3ZrOsDebWWB2hDiF" name="Page-1">
        <mxGraphModel dx="989" dy="678" grid="0" gridSize="10" guides="1" tooltips="1" connect="1" arrows="1" fold="1" page="1" pageScale="1" pageWidth="1654" pageHeight="1169" math="0" shadow="0">
            <root>
                <mxCell id="0"/>
                <mxCell id="1" parent="0"/>
                <mxCell id="2" value="Google Cloud- BigQuery" style="swimlane;horizontal=0;fillColor=#bac8d3;strokeColor=#000000;startSize=30;fontSize=11;fontFamily=Times New Roman;strokeWidth=0.5;sketch=0;shadow=1;" vertex="1" parent="1">
                    <mxGeometry x="112" y="340" width="1430" height="160" as="geometry"/>
                </mxCell>
                <mxCell id="3" value="Get transactional information of selected addresses" style="rounded=0;whiteSpace=wrap;html=1;fontSize=11;fontFamily=Times New Roman;strokeWidth=0.5;strokeColor=#000000;sketch=0;shadow=1;" vertex="1" parent="2">
                    <mxGeometry x="650" y="50" width="120" height="60" as="geometry"/>
                </mxCell>
                <mxCell id="18" style="edgeStyle=none;html=1;exitX=1;exitY=0.5;exitDx=0;exitDy=0;entryX=0;entryY=0.5;entryDx=0;entryDy=0;fontSize=11;fontFamily=Times New Roman;strokeWidth=0.5;strokeColor=#000000;sketch=0;shadow=1;" edge="1" parent="2" source="16" target="3">
                    <mxGeometry relative="1" as="geometry"/>
                </mxCell>
                <mxCell id="16" value="Dataset with addresses without name tags" style="shape=parallelogram;perimeter=parallelogramPerimeter;whiteSpace=wrap;html=1;fixedSize=1;rounded=0;fontSize=11;fontFamily=Times New Roman;strokeWidth=0.5;strokeColor=#000000;sketch=0;shadow=1;" vertex="1" parent="2">
                    <mxGeometry x="500" y="50" width="120" height="60" as="geometry"/>
                </mxCell>
                <mxCell id="4" value="EtherScan" style="swimlane;horizontal=0;fillColor=#d0cee2;strokeColor=#000000;startSize=30;fontSize=11;fontFamily=Times New Roman;strokeWidth=0.5;sketch=0;shadow=1;" vertex="1" parent="1">
                    <mxGeometry x="112" y="140" width="1430" height="160" as="geometry"/>
                </mxCell>
                <mxCell id="7" value="" style="edgeStyle=none;html=1;fontSize=11;fontFamily=Times New Roman;strokeWidth=0.5;strokeColor=#000000;sketch=0;shadow=1;" edge="1" parent="4" source="5" target="6">
                    <mxGeometry relative="1" as="geometry"/>
                </mxCell>
                <mxCell id="5" value="Connect with crawler to etherscan.io website" style="rounded=0;whiteSpace=wrap;html=1;fontSize=11;fontFamily=Times New Roman;strokeWidth=0.5;strokeColor=#000000;sketch=0;shadow=1;" vertex="1" parent="4">
                    <mxGeometry x="150" y="50" width="120" height="60" as="geometry"/>
                </mxCell>
                <mxCell id="15" value="" style="edgeStyle=none;html=1;fontSize=11;fontFamily=Times New Roman;strokeWidth=0.5;strokeColor=#000000;sketch=0;shadow=1;" edge="1" parent="4" source="6" target="14">
                    <mxGeometry relative="1" as="geometry"/>
                </mxCell>
                <mxCell id="6" value="Get Whale's transactions (Top 10,000 addresses)" style="rounded=0;whiteSpace=wrap;html=1;fontSize=11;fontFamily=Times New Roman;strokeWidth=0.5;strokeColor=#000000;sketch=0;shadow=1;" vertex="1" parent="4">
                    <mxGeometry x="320" y="40" width="120" height="80" as="geometry"/>
                </mxCell>
                <mxCell id="10" style="edgeStyle=none;html=1;exitX=1;exitY=0.5;exitDx=0;exitDy=0;entryX=0;entryY=0.5;entryDx=0;entryDy=0;fontSize=11;fontFamily=Times New Roman;strokeWidth=0.5;strokeColor=#000000;sketch=0;shadow=1;" edge="1" parent="4" source="9" target="5">
                    <mxGeometry relative="1" as="geometry"/>
                </mxCell>
                <mxCell id="9" value="Start" style="ellipse;whiteSpace=wrap;html=1;aspect=fixed;fontSize=11;fontStyle=1;fontFamily=Times New Roman;strokeWidth=0.5;strokeColor=#000000;sketch=0;shadow=1;" vertex="1" parent="4">
                    <mxGeometry x="50" y="50" width="60" height="60" as="geometry"/>
                </mxCell>
                <mxCell id="14" value="Filter by addresses without name tags" style="rhombus;whiteSpace=wrap;html=1;rounded=0;fontSize=11;fontFamily=Times New Roman;strokeWidth=0.5;strokeColor=#000000;sketch=0;shadow=1;" vertex="1" parent="4">
                    <mxGeometry x="490" y="25" width="140" height="110" as="geometry"/>
                </mxCell>
                <mxCell id="17" value="" style="edgeStyle=none;html=1;fontSize=11;fontFamily=Times New Roman;strokeWidth=0.5;strokeColor=#000000;sketch=0;shadow=1;" edge="1" parent="1" source="14" target="16">
                    <mxGeometry relative="1" as="geometry"/>
                </mxCell>
                <mxCell id="21" value="Jupyter Notebook- Python" style="swimlane;horizontal=0;fillColor=#fad9d5;strokeColor=#000000;startSize=30;fontSize=11;fontFamily=Times New Roman;strokeWidth=0.5;sketch=0;shadow=1;" vertex="1" parent="1">
                    <mxGeometry x="112" y="540" width="1430" height="160" as="geometry"/>
                </mxCell>
                <mxCell id="22" value="" style="edgeStyle=none;html=1;fontSize=10;" edge="1" parent="21" source="23">
                    <mxGeometry relative="1" as="geometry">
                        <mxPoint x="860" y="80" as="targetPoint"/>
                    </mxGeometry>
                </mxCell>
                <mxCell id="24" style="edgeStyle=none;html=1;exitX=1;exitY=0.5;exitDx=0;exitDy=0;entryX=0;entryY=0.5;entryDx=0;entryDy=0;fontSize=10;" edge="1" parent="21" source="25">
                    <mxGeometry relative="1" as="geometry">
                        <mxPoint x="650" y="80" as="targetPoint"/>
                    </mxGeometry>
                </mxCell>
                <mxCell id="28" value="" style="edgeStyle=none;html=1;fontSize=11;fontFamily=Times New Roman;strokeWidth=0.5;strokeColor=#000000;sketch=0;shadow=1;" edge="1" parent="21" source="19" target="27">
                    <mxGeometry relative="1" as="geometry"/>
                </mxCell>
                <mxCell id="19" value="Historical transactional dataset of top 10,000 whales" style="shape=parallelogram;perimeter=parallelogramPerimeter;whiteSpace=wrap;html=1;fixedSize=1;rounded=0;sketch=0;fontSize=11;fontFamily=Times New Roman;strokeWidth=0.5;strokeColor=#000000;shadow=1;" vertex="1" parent="21">
                    <mxGeometry x="635" y="50" width="145" height="60" as="geometry"/>
                </mxCell>
                <mxCell id="27" value="Create graph network and get nodes with highest IN degrees by unique count" style="whiteSpace=wrap;html=1;rounded=0;sketch=0;fontSize=11;fontFamily=Times New Roman;strokeWidth=0.5;strokeColor=#000000;shadow=1;" vertex="1" parent="21">
                    <mxGeometry x="820" y="50" width="120" height="60" as="geometry"/>
                </mxCell>
                <mxCell id="46" value="" style="edgeStyle=none;html=1;fontSize=11;fontFamily=Times New Roman;strokeWidth=0.5;strokeColor=#000000;sketch=0;shadow=1;" edge="1" parent="21" source="41" target="45">
                    <mxGeometry relative="1" as="geometry"/>
                </mxCell>
                <mxCell id="41" value="Dataset Listing Dates" style="shape=parallelogram;perimeter=parallelogramPerimeter;whiteSpace=wrap;html=1;fixedSize=1;rounded=0;sketch=0;fontSize=11;fontFamily=Times New Roman;strokeWidth=0.5;strokeColor=#000000;shadow=1;" vertex="1" parent="21">
                    <mxGeometry x="1005" y="50" width="95" height="60" as="geometry"/>
                </mxCell>
                <mxCell id="48" value="" style="edgeStyle=none;sketch=1;html=1;shadow=1;fontFamily=Times New Roman;fontSize=11;strokeColor=#000000;strokeWidth=0.5;" edge="1" parent="21" source="45" target="47">
                    <mxGeometry relative="1" as="geometry"/>
                </mxCell>
                <mxCell id="45" value="&lt;div&gt;&lt;span&gt;Filter addresses with transactions 30 days before listing and the listing date, and with no transactional activity before 30 days the listing date.&lt;/span&gt;&lt;/div&gt;" style="rhombus;rounded=0;sketch=0;fontSize=11;whiteSpace=wrap;html=1;fontFamily=Times New Roman;spacing=2;verticalAlign=middle;horizontal=1;labelBorderColor=none;labelBackgroundColor=none;align=center;fontStyle=0;strokeWidth=0.5;strokeColor=#000000;shadow=1;" vertex="1" parent="21">
                    <mxGeometry x="1150" y="15" width="180" height="130" as="geometry"/>
                </mxCell>
                <mxCell id="47" value="End" style="ellipse;whiteSpace=wrap;html=1;fontSize=11;fontFamily=Times New Roman;strokeColor=#000000;rounded=0;sketch=0;spacing=2;labelBorderColor=none;labelBackgroundColor=none;fontStyle=1;strokeWidth=0.5;shadow=1;" vertex="1" parent="21">
                    <mxGeometry x="1350" y="50" width="60" height="60" as="geometry"/>
                </mxCell>
                <mxCell id="20" value="" style="edgeStyle=none;html=1;fontSize=11;fontFamily=Times New Roman;strokeWidth=0.5;strokeColor=#000000;sketch=0;shadow=1;" edge="1" parent="1" source="3" target="19">
                    <mxGeometry relative="1" as="geometry"/>
                </mxCell>
                <mxCell id="29" value="Binance" style="swimlane;horizontal=0;fillColor=#fad7ac;strokeColor=#000000;startSize=30;fontSize=11;fontFamily=Times New Roman;strokeWidth=0.5;sketch=0;shadow=1;" vertex="1" parent="1">
                    <mxGeometry x="112" y="750" width="1430" height="160" as="geometry"/>
                </mxCell>
                <mxCell id="30" value="" style="edgeStyle=none;html=1;fontSize=10;" edge="1" parent="29">
                    <mxGeometry relative="1" as="geometry">
                        <mxPoint x="860" y="80" as="targetPoint"/>
                    </mxGeometry>
                </mxCell>
                <mxCell id="31" style="edgeStyle=none;html=1;exitX=1;exitY=0.5;exitDx=0;exitDy=0;entryX=0;entryY=0.5;entryDx=0;entryDy=0;fontSize=10;" edge="1" parent="29">
                    <mxGeometry relative="1" as="geometry">
                        <mxPoint x="650" y="80" as="targetPoint"/>
                    </mxGeometry>
                </mxCell>
                <mxCell id="40" value="" style="edgeStyle=none;html=1;fontSize=11;fontFamily=Times New Roman;strokeWidth=0.5;strokeColor=#000000;sketch=0;shadow=1;" edge="1" parent="29" source="35" target="39">
                    <mxGeometry relative="1" as="geometry"/>
                </mxCell>
                <mxCell id="35" value="Dataset addresses most transacted by top 10,000 whales" style="shape=parallelogram;perimeter=parallelogramPerimeter;whiteSpace=wrap;html=1;fixedSize=1;rounded=0;sketch=0;fontSize=11;fontFamily=Times New Roman;strokeWidth=0.5;strokeColor=#000000;shadow=1;" vertex="1" parent="29">
                    <mxGeometry x="811" y="50" width="142.5" height="60" as="geometry"/>
                </mxCell>
                <mxCell id="39" value="Get listing date of tokens in Binance based on first transaction in the platform" style="whiteSpace=wrap;html=1;rounded=0;sketch=0;fontSize=11;fontFamily=Times New Roman;strokeWidth=0.5;strokeColor=#000000;shadow=1;" vertex="1" parent="29">
                    <mxGeometry x="992.5" y="50" width="120" height="60" as="geometry"/>
                </mxCell>
                <mxCell id="36" value="" style="edgeStyle=none;html=1;fontSize=11;fontFamily=Times New Roman;strokeWidth=0.5;strokeColor=#000000;sketch=0;shadow=1;" edge="1" parent="1" source="27" target="35">
                    <mxGeometry relative="1" as="geometry"/>
                </mxCell>
                <mxCell id="42" value="" style="edgeStyle=none;html=1;fontSize=11;fontFamily=Times New Roman;strokeWidth=0.5;strokeColor=#000000;sketch=0;shadow=1;" edge="1" parent="1" source="39" target="41">
                    <mxGeometry relative="1" as="geometry"/>
                </mxCell>
                <mxCell id="49" value="&lt;h1 style=&quot;font-size: 23px&quot;&gt;Flow Diagram for Insider Trading Identification&amp;nbsp;&lt;/h1&gt;" style="text;html=1;strokeColor=none;fillColor=none;spacing=5;spacingTop=-20;whiteSpace=wrap;overflow=hidden;rounded=0;shadow=1;labelBackgroundColor=none;labelBorderColor=none;sketch=0;fontFamily=Times New Roman;fontSize=23;align=center;" vertex="1" parent="1">
                    <mxGeometry x="512" y="40" width="630" height="40" as="geometry"/>
                </mxCell>
            </root>
        </mxGraphModel>
    </diagram>
</mxfile>